<svg xmlns="http://www.w3.org/2000/svg" version="1.1" xmlns:xlink="http://www.w3.org/1999/xlink" xmlns:svgjs="http://svgjs.dev/svgjs" width="2000" height="1500" viewBox="0 0 2000 1500"><rect width="2000" height="1500" fill="#ffffff"></rect><g transform="matrix(0.75,0,0,0.75,249.090909090909,321.20677922614414)"><svg viewBox="0 0 396 247" data-background-color="#ffffff" preserveAspectRatio="xMidYMid meet" height="1247" width="2000" xmlns="http://www.w3.org/2000/svg" xmlns:xlink="http://www.w3.org/1999/xlink"><g id="tight-bounds" transform="matrix(1,0,0,1,0.2400000000000091,-0.09999999999999432)"><svg viewBox="0 0 395.52 247.2" height="247.2" width="395.52"><g><svg></svg></g><g><svg viewBox="0 0 395.52 247.2" height="247.2" width="395.52"><g transform="matrix(1,0,0,1,75.54432000000001,50.57972891408636)"><svg viewBox="0 0 244.43135999999996 146.04054217182727" height="146.04054217182727" width="244.43135999999996"><g><svg viewBox="0 0 244.43135999999996 146.04054217182727" height="146.04054217182727" width="244.43135999999996"><g><svg viewBox="0 0 244.43135999999996 146.04054217182727" height="146.04054217182727" width="244.43135999999996"><g><svg viewBox="0 0 244.43135999999996 146.04054217182727" height="146.04054217182727" width="244.43135999999996"><g id="textblocktransform"><svg viewBox="0 0 244.43135999999996 146.04054217182727" height="146.04054217182727" width="244.43135999999996" id="textblock"><g><svg viewBox="0 0 244.43135999999996 146.04054217182727" height="146.04054217182727" width="244.43135999999996"><g transform="matrix(1,0,0,1,0,0)"><svg width="244.43135999999996" viewBox="2.1 -34.02 57.32 34.25" height="146.04054217182727" data-palette-color="#2d4f8f"><path d="M2.1-33.75L2.1 0 20.28 0Q25.1 0 26.56-2.73 28.03-5.45 28.03-9.68L28.03-9.68Q28.03-13.4 26.41-15.75 24.8-18.1 22.13-18.25L22.13-18.25Q24.68-18.38 26.03-20.64 27.38-22.9 27.38-26.05L27.38-26.05Q27.38-29.1 25.94-31.43 24.5-33.75 19.53-33.75L19.53-33.75 2.1-33.75ZM18.98-3.55L7.2-3.55 7.2-16.57 17.98-16.57Q20.78-16.57 21.84-14.89 22.9-13.2 22.9-10.18L22.9-10.18Q22.9-6.93 22.04-5.24 21.18-3.55 18.98-3.55L18.98-3.55ZM17.68-19.75L7.2-19.75 7.2-30.23 18.25-30.23Q20.58-30.23 21.4-28.94 22.23-27.65 22.23-25.35L22.23-25.35Q22.23-22.88 21.23-21.31 20.23-19.75 17.68-19.75L17.68-19.75ZM46.2 0.23L46.2 0.23Q53.7 0.23 56.56-3.65 59.42-7.53 59.42-13.4L59.42-13.4 54.22-13.4Q54.22-8.05 52.19-5.69 50.15-3.33 46.15-3.33L46.15-3.33Q42.07-3.33 39.81-5.94 37.55-8.55 37.55-16.95L37.55-16.95Q37.55-25.33 39.81-27.9 42.07-30.48 46.15-30.48L46.15-30.48Q50.15-30.48 52.19-28.18 54.22-25.88 54.22-20.48L54.22-20.48 59.42-20.48Q59.42-26.45 56.56-30.24 53.7-34.02 46.17-34.02L46.17-34.02Q38.62-34.02 35.5-29.98 32.37-25.93 32.37-16.95L32.37-16.95Q32.37-7.98 35.51-3.88 38.65 0.23 46.2 0.23Z" opacity="1" transform="matrix(1,0,0,1,0,0)" fill="#2d4f8f" class="wordmark-text-0" data-fill-palette-color="primary" id="text-0"></path></svg></g></svg></g></svg></g></svg></g><g></g></svg></g></svg></g></svg></g><g><path d="M139.613 16.103A122.216 122.216 0 0 1 255.907 16.103L242.737 16.103A109.046 109.046 0 0 0 152.783 16.103L139.613 16.103M139.613 231.097A122.216 122.216 0 0 0 255.907 231.097L242.737 231.097A109.046 109.046 0 0 1 152.783 231.097L139.613 231.097" fill="#2d4f8f" stroke="transparent" data-fill-palette-color="tertiary"></path></g></svg></g><defs></defs></svg><rect width="395.52" height="247.2" fill="none" stroke="none" visibility="hidden"></rect></g></svg></g></svg>